<?xml version="1.0" standalone="no"?>
<!DOCTYPE svg PUBLIC "-//W3C//DTD SVG 1.1//EN" "http://www.w3.org/Graphics/SVG/1.1/DTD/svg11.dtd">

<svg style="stroke-linejoin:round; stroke:black; stroke-width:0.5pt; text-anchor:middle; fill:none" xmlns="http://www.w3.org/2000/svg" font-family="Helvetica, Arial, FreeSans, Sans, sans, sans-serif" height="32px" width="75px" version="1.1" xmlns:xlink="http://www.w3.org/1999/xlink" viewBox="0 0 75 32">

<g>

<text style="font-size:6" y="10" x="5px" stroke-width="0" fill="black">a</text>

<line stroke-width="0.5" y2="10" x2="70" stroke-dasharray="2,2" y1="10" x1="10px" />

<text style="font-size:6" y="20" x="5px" stroke-width="0" fill="black">b</text>

<line stroke-width="0.5" y2="20" x2="70" stroke-dasharray="2,2" y1="20" x1="10px" />

<text style="font-size:6" y="30" x="5px" stroke-width="0" fill="black">c</text>

<line stroke-width="0.5" y2="30" x2="70" stroke-dasharray="2,2" y1="30" x1="10px" />

<circle cy="10" cx="30" r="1" fill="black" />

None<circle cy="20" cx="30" r="1" fill="black" />

None<path stroke="black" d="M30,10 C31.1547005384,15 31.1547005384,15 30,20" />

<circle cy="20" cx="40" r="1" fill="black" />

None<circle cy="30" cx="40" r="1" fill="black" />

None<path stroke="black" d="M40,20 C41.1547005384,25 41.1547005384,25 40,30" />

<circle cy="10" cx="50" r="1" fill="black" />

None<circle cy="30" cx="50" r="1" fill="black" />

None<path stroke="black" d="M50,10 C52.3094010768,20 52.3094010768,20 50,30" />

<circle cy="10" cx="60" r="1" fill="black" />

None<circle cy="20" cx="60" r="1" fill="black" />

None<path stroke="black" d="M60,10 C61.1547005384,15 61.1547005384,15 60,20" />

</g>

</svg>

